<?xml version="1.0" encoding="UTF-8"?>
<!DOCTYPE svg PUBLIC "-//W3C//DTD SVG 1.1//EN" "http://www.w3.org/Graphics/SVG/1.1/DTD/svg11.dtd">
<!-- Creator: CorelDRAW -->
<svg xmlns="http://www.w3.org/2000/svg" xml:space="preserve" width="198px" height="76px" version="1.1" style="shape-rendering:geometricPrecision; text-rendering:geometricPrecision; image-rendering:optimizeQuality; fill-rule:evenodd; clip-rule:evenodd"
viewBox="0 0 198 76"
 xmlns:xlink="http://www.w3.org/1999/xlink"
 xmlns:xodm="http://www.corel.com/coreldraw/odm/2003"
 sodipodi:docname="john-cockerill-defense-cockerill-i-x-brochure-a4h-md-1.pdf"
 xmlns:inkscape="http://www.inkscape.org/namespaces/inkscape"
 xmlns:sodipodi="http://sodipodi.sourceforge.net/DTD/sodipodi-0.dtd"
 xmlns:svg="http://www.w3.org/2000/svg">
 <defs>
  <style type="text/css">
   <![CDATA[
    .fil2 {fill:#272976}
    .fil0 {fill:#3A3D8B}
    .fil1 {fill:#6AC4EC}
   ]]>
  </style>
 </defs>
 <g id="Camada_x0020_1">
  <metadata id="CorelCorpID_0Corel-Layer"/>
  <g id="_1932787872544">
   <sodipodi:namedview id="namedview1" pagecolor="#ffffff" bordercolor="#000000" borderopacity="0.25" inkscape:showpageshadow="2" inkscape:pageopacity="0.0" inkscape:pagecheckerboard="0" inkscape:deskcolor="#d1d1d1">
    <inkscape:page x="1.1656569e-05" y="-1.7363973e-06" width="198.48924" height="75.852905" id="page2" margin="0" bleed="0"/>
   </sodipodi:namedview>
  </g>
  <g id="_1932787903360">
   <sodipodi:namedview id="namedview1" pagecolor="#ffffff" bordercolor="#000000" borderopacity="0.25" inkscape:showpageshadow="2" inkscape:pageopacity="0.0" inkscape:pagecheckerboard="0" inkscape:deskcolor="#d1d1d1">
    <inkscape:page x="1.1656569e-05" y="-1.7363973e-06" width="198.48924" height="75.852905" id="page2" margin="0" bleed="0"/>
   </sodipodi:namedview>
  </g>
  <g id="_1932787903072">
   <path class="fil0" d="M77.32 47.14c-0.4,0.25 0.27,-0.17 -0.26,0.14l-0.4 -1.71 -3.05 0.01c-0.31,1.09 -0.19,14.76 -0.02,16.57l3.67 -0.02c0.23,-2.42 0.1,-5.94 0.1,-8.48 0,-1.49 -0.27,-3.1 0.64,-3.92 0.69,-0.63 1.83,-1.29 2.77,-1.35 3.27,-0.21 3.37,2.58 3.42,5.44 0.05,2.77 -0.04,5.54 0.05,8.29l3.59 0.12c0,-1.58 -0.34,-11.27 0.39,-12.17 0.81,-1.01 2.04,-1.76 3.45,-1.68 2.25,0.13 1.71,0.91 1.71,0.99l0.58 1c0.36,0.92 0.18,10.98 0.18,12.19l4.61 0c0,-2.64 0,-5.28 0,-7.92 0,-2.76 0.19,-5.31 -0.82,-7.08 -1.62,-2.83 -5.69,-3.38 -8.41,-1.82 -0.73,0.43 -1.62,1.46 -2.31,1.65 -0.57,-2.13 -5.18,-3.89 -8.91,-0.99 -0.32,0.25 -0.7,0.73 -0.98,0.74z"/>
   <path class="fil0" d="M42.86 46.73l2.8 7.91 -5.44 0c0.41,-1.73 2.24,-6.2 2.64,-7.91zm-5.03 14.34c0.3,-0.21 0.25,0.31 0.25,-0.33 -0.52,-0.46 0.55,-2.56 0.66,-3.08l8.06 -0.06 1.83 4.5 3.8 0.01c-0.02,-0.54 -3.78,-10.33 -4.03,-10.93 -1.26,-3.07 -2.36,-6.42 -3.6,-9.58l-0.49 -1.43 -2.6 -0.03c-1.19,3.62 -2.88,7.31 -4.14,10.99l-4.18 10.96 3.85 0.08 0.4 -1.58c0.38,0.37 0.11,-0.15 0.19,0.48z"/>
   <path class="fil0" d="M134.49 59.1c-0.29,-0.57 -0.55,-0.41 -0.63,-1.33 -0.07,-0.82 0.03,-1.13 0.34,-1.57 -0.28,-0.24 -0.51,0.24 0.11,-0.6l0.17 -0.18c0.36,-0.39 0.24,-0.36 0.81,-0.56 1.22,-0.42 3.84,-0.92 4.97,-0.22 0.18,0.79 0.28,3.4 -0.41,4l-0.54 0.3c-0.03,0.02 -0.07,0.04 -0.11,0.06 -1.07,0.59 -2.18,1.27 -3.87,0.83 -0.04,-0.01 -0.49,-0.19 -0.5,-0.19 -0.43,-0.32 -0.27,0.02 -0.34,-0.54zm4.99 -9.6c0.3,0.65 1.05,2.16 -0.01,2.31 -0.03,0 -0.08,0 -0.11,0l-0.86 0.03c-3.62,0.07 -8.53,0.76 -9.07,5.13 -0.67,5.49 5.7,7.3 9.42,4.96 0.56,-0.34 0.83,-0.86 1.45,-1.02 -0.18,0.39 0,0.83 0,1.65l4.12 0c0,-2.88 0.38,-11.49 -0.51,-13.83 -0.29,-0.76 -1.33,-2.62 -2.29,-2.55 -1.17,-0.12 -2.15,-1.06 -5.28,-0.99 -1.72,0.04 -3.21,0.46 -4.78,1.09l0 3.13c-0.03,-0.13 -0.43,-0.01 0.73,-0.49 0.44,-0.19 0.54,-0.28 1.05,-0.45 1.54,-0.5 5.48,-0.84 6.16,0.7 0.19,0.42 0.5,0.09 -0.02,0.33z"/>
   <path class="fil0" d="M115.9 46.63c-0.27,0.11 -0.02,-0.03 -0.37,0.23 -0.22,0.16 -0.2,0.19 -0.46,0.36 0,-0.66 0.07,-0.07 -0.32,-0.33 0,1.05 0.04,-1.22 -0.71,-1.33 -0.71,-0.1 -2.05,0.06 -2.85,-0.01l-0.06 16.62 3.69 -0.03c0.33,-2.25 -0.05,-6.09 0.06,-8.65 0.07,-1.45 -0.27,-2.7 0.58,-3.73 0.77,-0.95 3.36,-1.89 4.97,-1.18l0.45 0.22c0.57,0.26 0.57,0.14 0.89,0.65 0.67,1.06 0.73,2.48 0.72,3.87 0,2.94 0,5.87 0,8.8l3.63 -0.02c0,-3.37 0.36,-10.85 -0.51,-13.59 -1,-3.16 -4.31,-3.64 -7.18,-2.97 -1.13,0.27 -1.53,1.02 -2.53,1.09z"/>
   <path class="fil0" d="M150.6 54.64c0.02,-0.03 -0.13,-0.47 0.97,-0.11l2.65 0.98c0.76,0.36 1.21,0.42 1.44,1.11 0.9,2.67 -1.68,3.55 -3.82,3.24 -1.2,-0.18 -1.87,-0.39 -2.89,-0.8 -0.02,-0.01 -0.47,-0.14 -0.47,-0.14 -0.45,0.01 -0.4,-0.41 -0.5,1.67 -0.03,0.62 -0.09,0.37 0.11,0.79 0.13,0.26 0.29,0.29 0.38,0.68 0.1,0.11 0.01,0.09 0.35,0.23 0.78,0.32 3.2,0.63 4.01,0.61 2.92,-0.1 5.91,-1.29 6.79,-4.11 1.06,-3.4 -0.97,-5.33 -3.82,-6.46 -1.04,-0.41 -3.21,-0.85 -3.74,-1.7 -1.03,-1.64 1.67,-3.68 6.87,-0.93 0,-1.55 0.17,-2.56 0.17,-3.96 -0.51,-0.04 -6.52,-2.49 -10.11,0.94 -1.27,1.22 -1.88,3.02 -1.45,4.67 0.36,1.38 0.97,2.03 2.06,2.74 0.18,0.12 0.33,0.21 0.51,0.31 0.35,0.18 0.14,0 0.49,0.24z"/>
   <path class="fil1" d="M99.91 14.25c0,6.01 5.1,10 10.08,9.43 2.34,-0.27 3.93,-0.64 3.93,-3 0,-0.63 0.05,-0.06 -0.16,-0.49 -0.36,0.09 -3.79,3.18 -8.75,-0.33 -0.94,-0.67 -2.47,-2.88 -2.47,-4.46 0,-2.51 0,-3.58 1.72,-5.87 2.73,-3.63 8.72,-4.84 13.45,-4.84 6.3,0 12.62,2.36 17.49,5.26 2.58,1.54 2.65,1.95 4.44,3.14 -0.15,-0.55 -0.38,-0.63 -0.78,-1.02l-1.9 -1.9c-0.35,-0.33 -0.74,-0.59 -1.11,-0.87 -6.18,-4.64 -15.4,-7.13 -23.69,-6.05 -5.95,0.78 -12.25,4.69 -12.25,11z"/>
   <path class="fil1" d="M135.52 6.83c2.76,0 8.46,2.28 11.05,3.78 1.47,0.85 3.64,2.29 4.89,3.36 0.35,0.29 0.5,0.52 0.85,0.8 1.31,1.05 3.13,2.97 4.17,4.24 3.77,4.62 10.23,14.93 3.47,20 -1.25,0.93 -4.49,2.28 -6.46,2.44 0.58,0.79 2.41,0.66 3.46,0.66 3.89,0 8.25,-3.88 8.25,-8.74 0,-5.53 -4.54,-12.2 -8.28,-16.28l-1.82 -1.81c-2.25,-2.27 -5.52,-4.39 -8.37,-5.81 -3.1,-1.55 -6.57,-2.97 -11.21,-2.97l0 0.33z"/>
   <path class="fil0" d="M55.81 39.64l0.09 22.48 3.61 0.01 0 -23.69 -3.48 1.07c-0.03,0.02 -0.09,0.05 -0.11,0.06 -0.02,0.02 -0.07,0.05 -0.11,0.07z"/>
   <path class="fil0" d="M65.12 62.15l3.63 -0.05 0 -12.4c0,-0.81 0.34,-3.58 -0.17,-3.96l0 -0.17c-0.83,0 -1.66,0.02 -2.49,0 -1.31,-0.03 -1.05,-0.16 -0.99,1.32 0.17,4.64 -0.22,10.34 0.02,15.26z"/>
   <polygon class="fil0" points="102.71,62.14 106.36,62.26 106.33,45.58 102.7,45.58 102.7,58.11 "/>
   <path class="fil2" d="M115.9 46.63c1,-0.07 1.4,-0.82 2.53,-1.09 2.87,-0.67 6.18,-0.19 7.18,2.97 0.87,2.74 0.51,10.22 0.51,13.59l-3.63 0.02c0,-2.93 0,-5.86 0,-8.8 0.01,-1.39 -0.05,-2.81 -0.72,-3.87 -0.32,-0.51 -0.32,-0.39 -0.89,-0.65l-0.45 -0.22c-1.61,-0.71 -4.2,0.23 -4.97,1.18 -0.85,1.03 -0.51,2.28 -0.58,3.73 -0.11,2.56 0.27,6.4 -0.06,8.65l-3.69 0.03 0.06 -16.62c0.8,0.07 2.14,-0.09 2.85,0.01 0.75,0.11 0.71,2.38 0.71,1.33 0.94,-2.44 -0.7,-1.81 -3.96,-1.81l0 17.48 4.45 0 -0.01 -10.73c0,-0.94 -0.03,-1.16 0.45,-1.69 1.64,-1.8 4.89,-1.98 5.89,-0.18 0.61,1.11 0.43,2.27 0.43,3.86 0,2.91 0,5.82 0,8.74l4.62 0c0,-5.34 0.91,-13.1 -1.67,-15.97 -2.58,-2.86 -8.02,-1.72 -9.05,0.04z"/>
   <path class="fil2" d="M37.83 61.07c-0.08,-0.63 0.19,-0.11 -0.19,-0.48l-0.4 1.58 -3.85 -0.08 4.18 -10.96c1.26,-3.68 2.95,-7.37 4.14,-10.99l2.6 0.03 0.49 1.43c1.24,3.16 2.34,6.51 3.6,9.58 0.25,0.6 4.01,10.39 4.03,10.93l-3.8 -0.01 -1.83 -4.5 -8.06 0.06c-0.11,0.52 -1.18,2.62 -0.66,3.08l0.99 -2.8 7.58 0c0.29,0.55 1.6,3.98 1.65,4.62l4.78 0c-0.05,-0.58 -0.68,-2.03 -0.97,-2.83 -0.34,-0.96 -0.72,-1.84 -1.1,-2.85l-4.34 -11.49c-0.34,-1.02 -0.68,-1.84 -1.08,-2.88l-1.08 -2.87 -2.7 0.13c-0.67,0.2 -0.22,-0.23 -0.61,0.52 -0.17,0.33 -0.42,1.09 -0.59,1.56 -0.23,0.64 -0.37,1.03 -0.62,1.68 -0.83,2.17 -1.58,4.24 -2.41,6.33l-4.78 12.7 4.62 0c0.21,-0.44 0.41,-0.99 0.41,-1.49z"/>
   <path class="fil1" d="M101.55 39.15c0,5.1 6.11,4.05 6.11,0.32 0,-1.54 -1.65,-2.96 -2.97,-2.96 -1.38,0 -3.14,1.32 -3.14,2.64z"/>
   <path class="fil2" d="M93.38 49.37c0,-0.08 0.54,-0.86 -1.71,-0.99 -1.41,-0.08 -2.64,0.67 -3.45,1.68 -0.73,0.9 -0.39,10.59 -0.39,12.17l-3.59 -0.12c-0.09,-2.75 0,-5.52 -0.05,-8.29 -0.05,-2.86 -0.15,-5.65 -3.42,-5.44 -0.94,0.06 -2.08,0.72 -2.77,1.35 -0.91,0.82 -0.64,2.43 -0.64,3.92 0,2.54 0.13,6.06 -0.1,8.48l-3.67 0.02c-0.17,-1.81 -0.29,-15.48 0.02,-16.57l3.05 -0.01 0.4 1.71c0.53,-0.31 -0.14,0.11 0.26,-0.14 0,-0.51 -0.05,-1.01 -0.14,-1.43 -0.22,-1.05 -0.84,-0.63 -3.98,-0.63l0 17.48 4.45 0c0,-1.59 -0.3,-11.22 0.32,-12.21 1.03,-1.64 4.33,-2.46 5.37,-0.25 0.72,1.53 0.41,10.4 0.41,12.46l4.45 0c0,-3.25 0,-6.49 0,-9.73 0,-0.76 -0.1,-1.81 0.16,-2.31 0.2,-0.4 0.83,-0.96 1.26,-1.21 1.39,-0.82 2.46,-0.62 3.76,0.06z"/>
   <path class="fil1" d="M114.09 32.72c0,7.1 -3.56,10.65 -3.63,11.54l2.07 -1.88c3.01,-3.87 3.92,-9.58 2.05,-14.28 -0.5,-1.26 -1.47,-3.28 -2.47,-3.96 0.04,0.49 0.92,2.22 1.35,3.93 0.28,1.08 0.63,3.26 0.63,4.65z"/>
   <path class="fil2" d="M55.81 39.64c0.04,-0.02 0.09,-0.05 0.11,-0.07 0.02,-0.01 0.08,-0.04 0.11,-0.06l3.48 -1.07 0 23.69 -3.61 -0.01 -0.09 -22.48zm-0.25 -0.49l0 23.41 4.45 0c0,-4 0.25,-22.79 -0.17,-24.57 -0.37,0.18 -3.8,1.11 -4.28,1.16z"/>
   <path class="fil0" d="M76.66 70.47c0.07,-0.88 0.61,-1.91 0.82,-2.8 0.03,0.03 0.06,0.05 0.06,0.1l0.46 1.19c0.18,0.48 0.42,0.86 0.47,1.51 -0.45,-0.04 -1.46,-0.39 -1.81,0zm-2.47 2.64c0.83,0.07 1.13,0.23 1.42,-0.07 0.17,-0.18 0.53,-1.25 0.55,-1.58l2.81 0 0.52 1.64c0.99,0.1 1.78,0.57 1.44,-0.43l-1.94 -4.86c-0.69,-1.87 -0.35,-1.79 -1.51,-1.79 -0.99,0 -0.87,0.58 -1.13,1.34l-1.46 3.82c-0.27,0.7 -0.53,1.2 -0.7,1.93z"/>
   <path class="fil0" d="M66.44 37.05c-0.44,0.13 -0.77,0.21 -1.03,0.42l-0.5 0.62c-0.51,0.7 -0.8,1.76 -0.27,2.73 0.01,0.03 0.04,0.07 0.06,0.09 0.81,1.34 2.46,1.6 3.78,0.9 0.54,-0.29 0.54,-0.39 0.77,-0.83 0.72,-1.39 0.42,-2.93 -0.62,-3.52 -0.03,-0.01 -0.08,-0.03 -0.11,-0.05 -0.54,-0.28 -1.34,-0.57 -2.08,-0.36z"/>
   <path class="fil2" d="M102.7 58.11l0 -12.53 3.63 0 0.03 16.68 -3.65 -0.12 -0.01 -4.03zm-0.49 4.45l4.46 0 0 -17.48 -4.46 0 0 17.48z"/>
   <path class="fil2" d="M65.12 62.15c-0.24,-4.92 0.15,-10.62 -0.02,-15.26 -0.06,-1.48 -0.32,-1.35 0.99,-1.32 0.83,0.02 1.66,0 2.49,0l0 0.17c0.51,0.38 0.17,3.15 0.17,3.96l0 12.4 -3.63 0.05zm-0.5 0.41l4.45 0 0 -17.48 -4.45 0 0 17.48z"/>
   <path class="fil0" d="M128.43 70.8c0,-2.06 2.47,-2.49 2.47,0.17 0,1.76 -2.47,1.79 -2.47,-0.17zm-1.32 -0.16c0,4.15 6.07,3.35 5.07,-0.78 -0.68,-2.85 -5.07,-2.34 -5.07,0.78z"/>
   <path class="fil0" d="M123.98 72.28c-1.42,0 -0.93,-1.31 0.16,-1.31l0.66 0c0,0.54 -0.06,1.31 -0.82,1.31zm-1.98 -3.46c0,0.45 0.08,0.46 0.16,0.83 1.45,-0.12 0.62,-0.93 2.48,-0.5 0.09,0.39 0.15,0.49 0.16,0.99 -1.07,0 -3.13,-0.05 -3.13,1.65 0,0.78 0.62,1.33 1.29,1.53 0.95,0.28 1.38,-0.28 2.01,-0.71 0.05,0.68 0.02,0.66 0.82,0.66 0.69,0 0.35,-0.59 0.33,-1.3 -0.06,-1.99 0.53,-3.97 -2.14,-3.97 -0.58,0 -1.98,0.37 -1.98,0.82z"/>
   <path class="fil0" d="M113.59 72.28c-0.73,0 -0.82,0.03 -0.82,-0.65 0,-0.68 0.94,-0.66 1.64,-0.66 0,0.54 -0.06,1.31 -0.82,1.31zm-1.98 -3.29c0,1.88 2.74,-1.59 2.8,1.15 -1.3,0 -3.81,0.17 -2.92,2.25 0.8,1.86 2.86,0.45 3.09,0.39 0.15,0.56 0.01,0.49 1.15,0.49 0,-3.57 0.57,-5.27 -2.3,-5.27 -0.72,0 -1.82,0.31 -1.82,0.99z"/>
   <path class="fil0" d="M99.25 70.14l-2.15 0c0.27,-0.55 0.25,-1.04 1.01,-1.11 0.74,-0.07 1.08,0.38 1.14,1.11zm-1.32 3.13c2.2,0 2.4,-0.3 2.31,-1.48 -0.48,0.04 -2.62,1.4 -3.14,-0.82l3.46 0c0,-4.37 -4.75,-3.48 -4.84,-0.48 -0.04,1.3 0.82,2.78 2.21,2.78z"/>
   <path class="fil1" d="M142.77 46.23c1.24,-0.02 3.1,-2.17 5.31,-3.59l4.56 -2.2c0.28,-0.09 0.67,-0.18 0.9,-0.25 0.58,-0.2 0.43,0.13 0.61,-0.55 -2.55,0 -4.86,0.85 -6.98,1.92 -1.48,0.74 -4.24,2.83 -4.4,4.67z"/>
   <path class="fil0" d="M103.04 68.66c-0.52,-0.2 -0.24,0.36 -0.33,-0.5l-1.16 0 0 4.62c0,0.5 0.15,0.49 1.32,0.49 0,-1.73 -0.39,-4.12 1.16,-4.12 1.18,0 0.82,2.66 0.82,4.12l1.32 0c0,-3.22 0.56,-5.27 -1.98,-5.27 -0.67,0 -0.88,0.26 -1.15,0.66z"/>
   <path class="fil0" d="M116.72 70.64c0,2.87 1.98,2.06 2.81,3.29l-0.66 0.01c-0.7,0.26 -0.65,0.59 -0.66,1.15 0.73,0.01 0.66,0.17 1.31,0 1.49,-0.38 0.55,-1.62 0.5,-1.82 2.05,-0.98 0.39,-0.24 0.99,-1.48 -0.26,0.06 -2.97,1.41 -2.97,-1.15 0,-0.85 0.53,-1.49 1.49,-1.49 0.77,0 0.66,0.32 1.31,0.5 0.02,-0.73 0.12,-0.52 0.17,-1.16 -2.4,-1.27 -4.29,0.16 -4.29,2.15z"/>
   <path class="fil0" d="M107.66 67.01l0 1.15 -0.83 0 0 1.16 0.83 0c0,2.19 -0.4,3.75 1.4,4.04 2.02,0.32 1.56,-1.08 1.56,-1.4 -2.19,1.05 -1.38,-1.4 -1.65,-2.64l1.49 0c0.03,-1.3 0.67,-0.97 -0.82,-1.16 -1.16,-0.15 -0.52,-0.45 -0.5,-1.48 -0.74,0.02 -0.87,0.19 -1.48,0.33z"/>
   <path class="fil0" d="M91.17 68.82l0.03 0c-0.3,-0.14 -0.55,-0.34 -1.05,-0.36 -0.77,-0.05 -0.9,0.16 -1.11,0.4 0.81,-0.18 0.99,-0.08 1.38,0.39 0.91,1.07 -0.54,3.62 0.8,3.53l0.07 -2.99c0.1,-0.42 0.18,-0.62 0.65,-0.31 0.52,-0.46 0.7,-0.32 1.37,-0.16 0.78,3.34 -1.01,3.95 1.49,3.95 0,-1.34 0.31,-3.55 -0.26,-4.52 -0.98,-1.64 -2.76,-0.17 -3.37,0.07z"/>
   <path class="fil0" d="M82.59 73.27c0.38,0 0.5,-0.11 0.5,-0.49l0 -6.76c-1.21,0 -1.65,-0.36 -1.46,1.62l0.13 4.14c-0.04,0.76 -0.33,1.49 0.83,1.49z"/>
   <path class="fil2" d="M139.48 49.5c0.52,-0.24 0.21,0.09 0.02,-0.33 -0.68,-1.54 -4.62,-1.2 -6.16,-0.7 -0.51,0.17 -0.61,0.26 -1.05,0.45 -1.16,0.48 -0.76,0.36 -0.73,0.49l0 -3.13c1.57,-0.63 3.06,-1.05 4.78,-1.09 3.13,-0.07 4.11,0.87 5.28,0.99 -0.24,-0.48 0.03,-0.2 -0.44,-0.5 -0.14,-0.09 -0.46,-0.17 -0.61,-0.21 -3.01,-0.96 -7.14,-0.92 -9.67,0.76l0.17 3.8c2.04,-1.08 5.58,-2.7 7.98,-0.89 0.8,0.61 -0.59,-0.47 0.17,0.14l0.26 0.22z"/>
   <path class="fil1" d="M137.17 66.02c0,2.89 -0.52,2.65 -0.83,3.79 0.53,-0.14 0.55,-0.27 0.8,-0.68 0.19,-0.29 0.4,-0.66 0.52,-0.97 0.35,-0.82 0.5,-1.9 0.5,-2.96 0,-0.83 -1.83,-0.47 -3.47,-0.49 -1.35,-0.02 -2.28,-0.34 -3.79,-0.34 0.13,0.11 0.08,0.08 0.29,0.2 0.2,0.11 0.09,0.05 0.34,0.16 0.21,0.09 0.49,0.2 0.71,0.28 1.46,0.53 3.36,1.01 4.93,1.01z"/>
   <path class="fil2" d="M148.47 62.06c-0.09,-0.39 -0.25,-0.42 -0.38,-0.68 -0.2,-0.42 -0.14,-0.17 -0.11,-0.79 0.1,-2.08 0.05,-1.66 0.5,-1.67 0,0 0.45,0.13 0.47,0.14 1.02,0.41 1.69,0.62 2.89,0.8 2.14,0.31 4.72,-0.57 3.82,-3.24 -0.23,-0.69 -0.68,-0.75 -1.44,-1.11l-2.65 -0.98c-1.1,-0.36 -0.95,0.08 -0.97,0.11 1.06,0.39 2.42,0.78 3.44,1.26 3.46,1.63 0.41,4.95 -4.61,2.96 -0.66,-0.26 -1.02,-0.59 -1.71,-0.75 0,1.06 -0.15,1.34 -0.18,2.3 -0.03,1.31 -0.15,1.45 0.93,1.65z"/>
   <path class="fil2" d="M66.44 37.05c0.74,-0.21 1.54,0.08 2.08,0.36 0.03,0.02 0.08,0.04 0.11,0.05 1.04,0.59 1.34,2.13 0.62,3.52 -0.23,0.44 -0.23,0.54 -0.77,0.83 -1.32,0.7 -2.97,0.44 -3.78,-0.9 -0.02,-0.02 -0.05,-0.06 -0.06,-0.09 -0.53,-0.97 -0.24,-2.03 0.27,-2.73l0.5 -0.62c0.26,-0.21 0.59,-0.29 1.03,-0.42zm-2.48 2.42c0,3.37 3.73,3.79 5.16,2.36 1.26,-1.26 1.27,-3.38 0.08,-4.46 -1.97,-1.78 -5.24,-0.57 -5.24,2.1z"/>
   <path class="fil0" d="M84.41 72.78c0,0.08 -0.22,0.41 0.58,0.49 1.45,0.14 0.77,-1 0.81,-2.42l0.11 -1.87c-0.02,-0.95 -0.06,-0.82 -1.5,-0.82l0 4.62z"/>
   <path class="fil2" d="M88.68 68.82c0.08,0.41 0.08,0.06 -0.07,0.3 -0.79,1.22 0.25,-0.67 -0.26,0.37 -0.14,0.28 -0.24,0.77 -0.28,1.14 -0.03,0.4 -0.02,0.91 -0.04,1.33 -0.03,1.27 0.03,1.02 0.34,1.13l0.1 -0.21c0,-0.03 0.03,-0.09 0.03,-0.13l0.04 -0.79c-0.02,-1.82 -0.3,-2.77 1.31,-2.81 0.76,1.14 0.49,2.08 0.49,4.12 1.66,0 1.31,0.25 1.31,-2.64 0,-0.8 -0.12,-0.68 0.29,-1.15 -0.47,-0.31 -0.55,-0.11 -0.65,0.31l-0.07 2.99c-1.34,0.09 0.11,-2.46 -0.8,-3.53 -0.39,-0.47 -0.57,-0.57 -1.38,-0.39 0.21,-0.24 0.34,-0.45 1.11,-0.4 0.5,0.02 0.75,0.22 1.05,0.36l-0.03 0c0.07,-0.26 0.36,-0.19 -0.2,-0.61 -0.22,-0.16 -0.6,-0.23 -0.96,-0.23 -0.45,0 -0.63,0.04 -0.94,0.24 -0.47,0.3 -0.39,0.53 -0.39,0.6z"/>
   <path class="fil2" d="M134.2 56.2c1.91,-1.82 3,-1.39 5.77,-1.39 0,2.8 0.43,3.06 -1.22,4.05 -1.42,0.87 -2.72,0.94 -4.26,0.24 0.07,0.56 -0.09,0.22 0.34,0.54 0.01,0 0.46,0.18 0.5,0.19 1.69,0.44 2.8,-0.24 3.87,-0.83 0.04,-0.02 0.08,-0.04 0.11,-0.06l0.54 -0.3c0.69,-0.6 0.59,-3.21 0.41,-4 -1.13,-0.7 -3.75,-0.2 -4.97,0.22 -0.57,0.2 -0.45,0.17 -0.81,0.56l-0.17 0.18c-0.62,0.84 -0.39,0.36 -0.11,0.6z"/>
   <path class="fil0" d="M88.37 73.09c-0.31,-0.11 -0.37,0.14 -0.34,-1.13 0.02,-0.42 0.01,-0.93 0.04,-1.33 0.04,-0.37 0.14,-0.86 0.28,-1.14 0.51,-1.04 -0.53,0.85 0.26,-0.37 0.15,-0.24 0.15,0.11 0.07,-0.3 -0.38,-0.3 -0.31,0.49 -0.31,-0.66 -1.6,0 -1.24,-0.26 -1.16,1.81 0.08,2.16 -0.71,3.7 1.07,3.16 0.01,0 0.06,-0.02 0.09,-0.04z"/>
   <path class="fil0" d="M122.33 67.5c1.37,0 0.59,0.04 1.32,-0.49 0.58,0.39 0.26,0.49 1.15,0.49 0.63,0 0.92,-0.88 1.16,-1.32 -1.04,0 -1.01,0.33 -1.49,0.33 -0.08,0 -1.54,-1.58 -2.14,0.99z"/>
   <path class="fil2" d="M84.41 66.68c0,1.19 0.89,0.81 1.48,0.49 0,-1.86 -1.48,-1.14 -1.48,-0.49z"/>
  </g>
 </g>
</svg>
