<?xml version="1.0" encoding="utf-8"?>
<!-- Generator: Adobe Illustrator 20.0.0, SVG Export Plug-In . SVG Version: 6.00 Build 0)  -->
<svg version="1.1" id="Layer_1" xmlns="http://www.w3.org/2000/svg" xmlns:xlink="http://www.w3.org/1999/xlink" x="0px" y="0px"
	 width="562.8px" height="140.3px" viewBox="0 0 562.8 140.3" enable-background="new 0 0 562.8 140.3" xml:space="preserve">
<path fill="#0081A3" d="M70.2,0C31.5,0,0,31.5,0,70.2c0,38.7,31.5,70.2,70.2,70.2c38.7,0,70.2-31.5,70.2-70.2
	C140.3,31.5,108.8,0,70.2,0z M70.2,135.1c-35.8,0-65-29.1-65-65c0-35.8,29.1-65,65-65c35.8,0,65,29.1,65,65
	C135.1,106,106,135.1,70.2,135.1z"/>
<path fill="#71787D" d="M234.5,88.3c0,0-47.5,0-49.4,0c0-1.4,0-5.1,0-6.4c1.9,0,46.3,0,46.3,0c0.6,0,1-0.5,1-1v-11c0-0.6-0.5-1-1-1
	c0,0-44.3,0-46.3,0c0-1.4,0-5.1,0-6.4c1.9,0,48.5,0,48.5,0c0.6,0,1-0.5,1-1V49.1c0-0.6-0.5-1-1-1h-65.7c-0.6,0-1,0.5-1,1V102
	c0,0.6,0.5,1,1,1h66.7c0.6,0,1-0.5,1-1V89.3C235.6,88.8,235.1,88.3,234.5,88.3z"/>
<path fill="#71787D" d="M319.8,101.3c0,0-24-24.5-25.3-25.8c1.2-1.3,23.5-25.7,23.5-25.7c0.2-0.2,0.3-0.4,0.3-0.7
	c0-0.1,0-0.3-0.1-0.4c-0.2-0.4-0.5-0.6-0.9-0.6h-21c-0.3,0-0.6,0.1-0.8,0.3c0,0-14.3,16.1-15.7,17.6c-1.4-1.6-15.7-17.6-15.7-17.6
	c-0.2-0.2-0.5-0.3-0.8-0.3h-21c-0.4,0-0.8,0.2-0.9,0.6c-0.1,0.1-0.1,0.3-0.1,0.4c0,0.2,0.1,0.5,0.3,0.7c0,0,22.2,24.3,23.5,25.7
	c-1.3,1.3-25.3,25.8-25.3,25.8c-0.2,0.2-0.3,0.5-0.3,0.7c0,0.1,0,0.3,0.1,0.4c0.2,0.4,0.5,0.6,0.9,0.6h21.8c0.3,0,0.6-0.1,0.8-0.3
	c0,0,15.3-16.9,16.7-18.4c1.4,1.5,16.7,18.4,16.7,18.4c0.2,0.2,0.5,0.3,0.8,0.3h21.8c0.4,0,0.8-0.2,0.9-0.6c0.1-0.1,0.1-0.3,0.1-0.4
	C320.1,101.8,320,101.5,319.8,101.3z"/>
<path fill="#71787D" d="M376.6,48.1h-51.3c-0.6,0-1,0.5-1,1V102c0,0.6,0.5,1,1,1h16.2c0.6,0,1-0.5,1-1c0,0,0-10.6,0-12.3
	c1.9,0,38.3,0,38.3,0c14.8,0,15.9-13.8,15.9-18v-4.5C396.8,59,394.7,48.1,376.6,48.1z M342.6,63.3c1.9,0,29.9,0,29.9,0
	c5,0,5.6,2.2,5.6,4.6v2c0,3.1-1.4,4.6-4.2,4.6c0,0-29.4,0-31.3,0C342.6,73,342.6,64.9,342.6,63.3z"/>
<path fill="#71787D" d="M475.5,68.2v-3.4c0-11.6-5.2-16.7-16.9-16.7h-56.1c-0.6,0-1,0.5-1,1V102c0,0.6,0.5,1,1,1h16.2
	c0.6,0,1-0.5,1-1c0,0,0-11,0-12.7c1.9,0,31.6,0,31.6,0c4.4,0,5.6,1.4,5.6,6.4v6.4c0,0.6,0.5,1,1,1h16.2c0.6,0,1-0.5,1-1v-9
	c0-7.5-3-10.5-6.6-11.8C474.2,78.8,475.5,74.4,475.5,68.2z M419.8,63.3c1.9,0,31.4,0,31.4,0c5.2,0,6.4,0.9,6.4,4.5v1.8
	c0,3.4-1.3,4.5-5,4.5c0,0-31,0-32.9,0C419.8,72.5,419.8,64.9,419.8,63.3z"/>
<path fill="#71787D" d="M538.5,47.5h-33.1c-12.6,0-24.3,2.4-24.3,20.2v15.8c0,17.7,11.7,20.2,24.3,20.2h33.1
	c12.6,0,24.3-2.4,24.3-20.2V67.7C562.8,50,551.1,47.5,538.5,47.5z M544.1,72.7v5.7c0,7.2-1.2,9.6-8.3,9.6H508
	c-7.1,0-8.3-2.4-8.3-9.6v-5.7c0-6.4,1.4-9.6,9.1-9.6H535C542.7,63.1,544.1,66.4,544.1,72.7z"/>
<path fill="#0081A3" d="M70.2,8C35.8,8,8,35.8,8,70.2s27.8,62.2,62.2,62.2c34.3,0,62.2-27.8,62.2-62.2S104.5,8,70.2,8z M85.3,70.9
	c5.2,4.3,11.3,10.5,13.3,11.8c6.6,4.1,16.7,0.9,16.7,0.9s-12.3,11.4-20,13.2c-7.7,1.8-15.5,0.5-20.9-3.2c-5.3-3.6-8.8-8-8.8-8
	s2.7,8.9,7.2,12.3c6.8,5,16.6,2.9,16.6,2.9s-7.5,4.4-13.2,5.8c-2.7,0.7-7.8,1.9-12.7-0.1c-3.2-1.3-6.7-4.6-6.7-4.6s-0.9,1.6,2.3,5
	c3.4,3.6,8.6,4.4,8.6,4.4s-11.6,2.5-16.5-0.8c-2-1.3-9-5.3-3.1-17.8c1.3-2.7,5.3-6.1,5.8-13.9c0.4-6.9-1.3-8.5-1.6-10.9
	c-0.5-3.9,3-2.8,5.5-10.5c1.4-4.4,0.2-9.1-0.7-11.8c-1-2.9-3.6-7.1-3.6-7.1s-0.4-6,9.9-7.5c3.5-0.5,7.6,1,10,1.7
	c7,2.2,14.9,2,14.9,2S76.5,36,74.2,40.4c-0.1,0.1,6.6-1.1,7.8-1.1c6.1-0.1,9.8,1.7,12.6,4.6c3.2,3.2,6,5,6,5s-7.6-2.1-11.5-1.7
	c-3.4,0.3-4.7,2-4.7,2s6.7,1.2,9.4,2.4c8.6,3.9,12.2,11.5,18,16.6c5.8,5.1,12.7,4.2,12.7,4.2s-5.7,6.3-10,7.2
	c-2.9,0.6-12.6,0.4-20.2-5.7c-12.9-10.5-19.4-8.3-19.4-8.3S80.6,67,85.3,70.9z M24.5,81.2c-1.1-0.7-2.5-4-2.5-4s1.6,2.9,5.1,2
	c1.5-0.4,7-3.2,7-3.2s1.9-0.8,3.5,0.3c1.7,1.2,2.2,2.8,2.3,3.6c0,0-0.9-1.3-3.9-0.5c-1.5,0.4-9,2.3-9,2.3
	C27.1,81.6,25.7,81.9,24.5,81.2z M43.8,87.2c-1.6,0.2-9.8,2.4-9.8,2.4l-2.3-5.9c2.4,0.9,4.3,1.3,6.3,0.8c3.8-1,6.2-5.1,5.3-9.2
	c-0.9-4.1-4.7-6.7-8.5-5.8c-2.3,0.6-4.1,2.4-5,4.6l-4.4-7.7c0,0-1.4,0-1.6-1.6C23.7,63.2,36,54.3,36,54.3l6.9,6l-2-7.6l-4,0.6
	l0.1-1.9l13.8-10.7c0,0,4.9,7.4,4.6,12c-0.6,8.4-6.7,10.4-6.3,13.7c0.4,3.2,4,6.5,1.7,14.4c-2.3,8-4.6,9.2-4.6,9.2
	S45.3,87,43.8,87.2z"/>
</svg>
