<?xml version="1.0" encoding="UTF-8" standalone="no"?>
<!-- Created with Inkscape (http://www.inkscape.org/) -->

<svg
   version="1.1"
   id="svg1"
   width="198.48924"
   height="75.852905"
   viewBox="0 0 198.48924 75.852905"
   sodipodi:docname="john-cockerill-defense-cockerill-i-x-brochure-a4h-md-1.pdf"
   xmlns:inkscape="http://www.inkscape.org/namespaces/inkscape"
   xmlns:sodipodi="http://sodipodi.sourceforge.net/DTD/sodipodi-0.dtd"
   xmlns="http://www.w3.org/2000/svg"
   xmlns:svg="http://www.w3.org/2000/svg">
  <defs
     id="defs1">
    <clipPath
       clipPathUnits="userSpaceOnUse"
       id="clipPath10">
      <path
         d="m 642.361,50.662 h 148.867 v 56.89 H 642.361 Z"
         transform="translate(-678.68602,-107.5517)"
         id="path10" />
    </clipPath>
    <clipPath
       clipPathUnits="userSpaceOnUse"
       id="clipPath12">
      <path
         d="m 642.361,50.662 h 148.867 v 56.89 H 642.361 Z"
         transform="translate(-646.36552,-91.377102)"
         id="path12" />
    </clipPath>
    <clipPath
       clipPathUnits="userSpaceOnUse"
       id="clipPath14">
      <path
         d="m 642.361,50.662 h 148.867 v 56.89 H 642.361 Z"
         transform="translate(-702.82402,-53.716204)"
         id="path14" />
    </clipPath>
    <clipPath
       clipPathUnits="userSpaceOnUse"
       id="clipPath16">
      <path
         d="m 642.361,50.662 h 148.867 v 56.89 H 642.361 Z"
         transform="translate(-721.65222,-57.168499)"
         id="path16" />
    </clipPath>
    <clipPath
       clipPathUnits="userSpaceOnUse"
       id="clipPath18">
      <path
         d="m 642.361,50.662 h 148.867 v 56.89 H 642.361 Z"
         transform="translate(-732.67222,-53.450801)"
         id="path18" />
    </clipPath>
    <clipPath
       clipPathUnits="userSpaceOnUse"
       id="clipPath20">
      <path
         d="m 642.361,50.662 h 148.867 v 56.89 H 642.361 Z"
         transform="translate(-751.81989,-63.543004)"
         id="path20" />
    </clipPath>
    <clipPath
       clipPathUnits="userSpaceOnUse"
       id="clipPath22">
      <path
         d="m 642.361,50.662 h 148.867 v 56.89 H 642.361 Z"
         transform="translate(-755.40422,-58.470004)"
         id="path22" />
    </clipPath>
    <clipPath
       clipPathUnits="userSpaceOnUse"
       id="clipPath24">
      <path
         d="m 642.361,50.662 h 148.867 v 56.89 H 642.361 Z"
         transform="translate(-769.90382,-61.232502)"
         id="path24" />
    </clipPath>
    <clipPath
       clipPathUnits="userSpaceOnUse"
       id="clipPath26">
      <path
         d="m 642.361,50.662 h 148.867 v 56.89 H 642.361 Z"
         id="path26" />
    </clipPath>
    <clipPath
       clipPathUnits="userSpaceOnUse"
       id="clipPath28">
      <path
         d="m 642.361,50.662 h 148.867 v 56.89 H 642.361 Z"
         id="path28" />
    </clipPath>
    <clipPath
       clipPathUnits="userSpaceOnUse"
       id="clipPath30">
      <path
         d="m 642.361,50.662 h 148.867 v 56.89 H 642.361 Z"
         id="path30" />
    </clipPath>
    <clipPath
       clipPathUnits="userSpaceOnUse"
       id="clipPath32">
      <path
         d="m 642.361,50.662 h 148.867 v 56.89 H 642.361 Z"
         transform="translate(-777.40562,-69.240004)"
         id="path32" />
    </clipPath>
    <clipPath
       clipPathUnits="userSpaceOnUse"
       id="clipPath34">
      <path
         d="m 642.361,50.662 h 148.867 v 56.89 H 642.361 Z"
         transform="translate(-700.82252,-75.967399)"
         id="path34" />
    </clipPath>
    <clipPath
       clipPathUnits="userSpaceOnUse"
       id="clipPath36">
      <path
         d="m 642.361,50.662 h 148.867 v 56.89 H 642.361 Z"
         transform="translate(-712.37852,-79.765699)"
         id="path36" />
    </clipPath>
    <clipPath
       clipPathUnits="userSpaceOnUse"
       id="clipPath38">
      <path
         d="m 642.361,50.662 h 148.867 v 56.89 H 642.361 Z"
         transform="translate(-727.54202,-79.874104)"
         id="path38" />
    </clipPath>
    <clipPath
       clipPathUnits="userSpaceOnUse"
       id="clipPath40">
      <path
         d="m 642.361,50.662 h 148.867 v 56.89 H 642.361 Z"
         transform="translate(-741.67542,-79.874104)"
         id="path40" />
    </clipPath>
  </defs>
  <sodipodi:namedview
     id="namedview1"
     pagecolor="#ffffff"
     bordercolor="#000000"
     borderopacity="0.25"
     inkscape:showpageshadow="2"
     inkscape:pageopacity="0.0"
     inkscape:pagecheckerboard="0"
     inkscape:deskcolor="#d1d1d1">
    <inkscape:page
       x="1.1656569e-05"
       y="-1.7363973e-06"
       width="198.48924"
       height="75.852905"
       id="page2"
       margin="0"
       bleed="0" />
  </sodipodi:namedview>
  <g
     id="g1"
     inkscape:groupmode="layer"
     inkscape:label="1"
     transform="translate(-856.48134,-650.29908)">
    <g
       id="group-MC0">
      <path
         id="path9"
         d="m 0,0 h -16.16 v -8.088 h 12.13 l 0.001,-11.572 c 0,-2.084 -0.804,-4.09 -2.251,-5.59 -4.137,-4.292 -9.519,-7.376 -15.564,-8.675 1.915,-2.484 4.333,-4.56 7.108,-6.066 5.557,2.097 10.501,5.444 14.487,9.699 2.753,2.938 4.243,6.841 4.254,10.867 v 15.42 C 4.005,-1.793 2.212,0 0,0"
         style="fill:#fff;fill-opacity:1;fill-rule:nonzero;stroke:none"
         transform="matrix(1.3333333,0,0,-1.3333333,904.91467,650.29907)"
         clip-path="url(#clipPath10)" />
      <path
         id="path11"
         d="M 0,0 H 16.16 V -8.088 H 4.03 L 4.029,-19.66 c 0,-2.084 0.804,-4.09 2.251,-5.59 4.137,-4.292 9.519,-7.376 15.564,-8.675 -1.915,-2.484 -4.333,-4.56 -7.108,-6.066 -5.557,2.097 -10.5,5.444 -14.487,9.699 -2.753,2.938 -4.243,6.841 -4.254,10.867 v 15.42 C -4.005,-1.793 -2.212,0 0,0"
         style="fill:#fff;fill-opacity:1;fill-rule:nonzero;stroke:none"
         transform="matrix(1.3333333,0,0,-1.3333333,861.82067,671.8652)"
         clip-path="url(#clipPath12)" />
      <path
         id="path13"
         d="m 0,0 c -2.974,0 -4.754,2.231 -4.754,5.976 v 0.265 c 0,3.718 1.806,5.976 4.807,5.976 2.284,0 3.825,-0.983 4.382,-3.479 h 3.479 c -0.77,4.382 -3.691,6.533 -7.834,6.533 -4.967,0 -8.34,-3.665 -8.34,-9.163 0,-5.47 3.32,-9.163 8.181,-9.163 4.302,0 7.383,2.179 8.047,6.8 H 4.489 C 4.01,1.036 2.417,0 0,0"
         style="fill:#fff;fill-opacity:1;fill-rule:nonzero;stroke:none"
         transform="matrix(1.3333333,0,0,-1.3333333,937.09867,722.07973)"
         clip-path="url(#clipPath14)" />
      <path
         id="path15"
         d="m 0,0 c 0,-2.337 -1.195,-3.718 -3.134,-3.718 -1.912,0 -3.054,1.381 -3.054,3.718 v 0.106 c 0,2.39 1.168,3.825 3.107,3.825 C -1.168,3.931 0,2.496 0,0.106 Z m -3.081,6.613 c -3.797,0 -6.453,-2.709 -6.453,-6.533 0,-3.824 2.602,-6.48 6.374,-6.48 3.797,0 6.506,2.708 6.506,6.48 0,3.824 -2.655,6.533 -6.427,6.533"
         style="fill:#fff;fill-opacity:1;fill-rule:nonzero;stroke:none"
         transform="matrix(1.3333333,0,0,-1.3333333,962.20293,717.47667)"
         clip-path="url(#clipPath16)" />
      <path
         id="path17"
         d="m 0,0 c -1.832,0 -2.895,1.567 -2.895,3.771 v 0.107 c 0,2.204 1.169,3.771 3.001,3.771 1.541,0 2.231,-0.903 2.603,-2.285 l 3.107,0.957 c -0.849,2.417 -2.655,4.01 -5.683,4.01 -3.745,0 -6.321,-2.709 -6.321,-6.48 0,-3.878 2.364,-6.534 6.241,-6.534 3.161,0 5.02,1.62 5.896,4.197 L 2.842,2.417 C 2.471,0.903 1.78,0 0,0"
         style="fill:#fff;fill-opacity:1;fill-rule:nonzero;stroke:none"
         transform="matrix(1.3333333,0,0,-1.3333333,976.89627,722.4336)"
         clip-path="url(#clipPath18)" />
      <path
         id="path19"
         d="M 0,0 H -3.718 L -8.207,-5.498 V 5.088 h -3.213 v -17.624 h 3.213 v 3.479 l 1.753,2.045 3.187,-5.524 h 3.559 l -4.621,7.835 z"
         style="fill:#fff;fill-opacity:1;fill-rule:nonzero;stroke:none"
         transform="matrix(1.3333333,0,0,-1.3333333,1002.4265,708.97733)"
         clip-path="url(#clipPath20)" />
      <path
         id="path21"
         d="m 0,0 c 0.239,1.753 1.408,2.763 3.001,2.763 1.7,0 2.682,-0.93 2.815,-2.763 z m 3.081,5.312 c -3.665,0 -6.268,-2.709 -6.268,-6.587 0,-3.904 2.443,-6.4 6.347,-6.4 3.162,0 5.016,1.46 5.881,3.292 L 6.14,-3.462 c -0.481,-0.94 -1.175,-1.637 -2.926,-1.637 -1.78,0 -2.949,1.009 -3.161,2.815 h 9.083 v 1.116 c 0,3.957 -2.257,6.48 -6.055,6.48"
         style="fill:#fff;fill-opacity:1;fill-rule:nonzero;stroke:none"
         transform="matrix(1.3333333,0,0,-1.3333333,1007.2056,715.74133)"
         clip-path="url(#clipPath22)" />
      <path
         id="path23"
         d="M 0,0 V 2.311 H -3.293 V -10.225 H 0 v 6.427 c 0,2.178 0.557,3.081 2.55,3.081 h 1.301 v 3.16 H 3.585 C 1.275,2.443 0.345,1.434 0,0"
         style="fill:#fff;fill-opacity:1;fill-rule:nonzero;stroke:none"
         transform="matrix(1.3333333,0,0,-1.3333333,1026.5384,712.058)"
         clip-path="url(#clipPath24)" />
      <path
         id="path25"
         d="m 781.827,51.007 h 3.32 v 17.624 h -3.32 z"
         style="fill:#fff;fill-opacity:1;fill-rule:nonzero;stroke:none"
         transform="matrix(1.3333333,0,0,-1.3333333,0,793.70133)"
         clip-path="url(#clipPath26)" />
      <path
         id="path27"
         d="m 787.908,51.007 h 3.32 v 17.624 h -3.32 z"
         style="fill:#fff;fill-opacity:1;fill-rule:nonzero;stroke:none"
         transform="matrix(1.3333333,0,0,-1.3333333,0,793.70133)"
         clip-path="url(#clipPath28)" />
      <path
         id="path29"
         d="m 775.745,51.007 h 3.32 v 12.536 h -3.32 z"
         style="fill:#fff;fill-opacity:1;fill-rule:nonzero;stroke:none"
         transform="matrix(1.3333333,0,0,-1.3333333,0,793.70133)"
         clip-path="url(#clipPath30)" />
      <path
         id="path31"
         d="m 0,0 c -1.17,0 -1.974,-0.772 -1.974,-1.899 0,-1.127 0.804,-1.899 1.974,-1.899 1.17,0 1.974,0.772 1.974,1.899 C 1.974,-0.772 1.17,0 0,0"
         style="fill:#fff;fill-opacity:1;fill-rule:nonzero;stroke:none"
         transform="matrix(1.3333333,0,0,-1.3333333,1036.5408,701.38133)"
         clip-path="url(#clipPath32)" />
      <path
         id="path33"
         d="M 0,0 C -1.791,0 -2.55,1.031 -2.686,3.256 L -6.077,2.767 c 0.244,-3.418 2.143,-5.724 6.131,-5.724 4.151,0 6.131,2.035 6.131,6.294 V 15.41 H -3.845 V 12.453 H 2.74 V 3.283 C 2.74,0.922 1.981,0 0,0"
         style="fill:#fff;fill-opacity:1;fill-rule:nonzero;stroke:none"
         transform="matrix(1.3333333,0,0,-1.3333333,934.43,692.41147)"
         clip-path="url(#clipPath34)" />
      <path
         id="path35"
         d="M 0,0 C 0,2.441 1.194,3.907 3.174,3.907 5.127,3.907 6.321,2.441 6.321,0 V -0.109 C 6.321,-2.496 5.1,-3.906 3.12,-3.906 1.167,-3.906 0,-2.496 0,-0.109 Z m 3.093,-6.647 c 3.879,0 6.646,2.768 6.646,6.62 0,3.906 -2.713,6.674 -6.565,6.674 -3.879,0 -6.592,-2.768 -6.592,-6.674 0,-3.907 2.658,-6.62 6.511,-6.62"
         style="fill:#fff;fill-opacity:1;fill-rule:nonzero;stroke:none"
         transform="matrix(1.3333333,0,0,-1.3333333,949.838,687.34707)"
         clip-path="url(#clipPath36)" />
      <path
         id="path37"
         d="m 0,0 c 0,2.388 1.004,3.689 2.577,3.689 1.574,0 2.252,-0.922 2.252,-2.712 V -6.511 H 8.193 V 1.167 C 8.193,4.693 6.538,6.538 3.744,6.538 1.872,6.538 0.651,5.616 0,4.015 v 7.488 H -3.282 V -6.511 H 0 Z"
         style="fill:#fff;fill-opacity:1;fill-rule:nonzero;stroke:none"
         transform="matrix(1.3333333,0,0,-1.3333333,970.056,687.20253)"
         clip-path="url(#clipPath38)" />
      <path
         id="path39"
         d="m 0,0 c 0,2.388 0.976,3.689 2.577,3.689 1.574,0 2.252,-0.922 2.252,-2.712 V -6.511 H 8.193 V 1.167 C 8.193,4.693 6.538,6.566 3.744,6.566 1.926,6.566 0.678,5.697 0,4.205 V 6.294 H -3.364 V -6.511 H 0 Z"
         style="fill:#fff;fill-opacity:1;fill-rule:nonzero;stroke:none"
         transform="matrix(1.3333333,0,0,-1.3333333,988.90053,687.20253)"
         clip-path="url(#clipPath40)" />
    </g>
  </g>
</svg>
