<?xml version="1.0" encoding="UTF-8"?>
<!DOCTYPE svg PUBLIC "-//W3C//DTD SVG 1.1//EN" "http://www.w3.org/Graphics/SVG/1.1/DTD/svg11.dtd">
<!-- Creator: CorelDRAW -->
<svg xmlns="http://www.w3.org/2000/svg" xml:space="preserve" width="198px" height="76px" version="1.1" style="shape-rendering:geometricPrecision; text-rendering:geometricPrecision; image-rendering:optimizeQuality; fill-rule:evenodd; clip-rule:evenodd"
viewBox="0 0 198 76"
 xmlns:xlink="http://www.w3.org/1999/xlink"
 xmlns:xodm="http://www.corel.com/coreldraw/odm/2003"
 sodipodi:docname="john-cockerill-defense-cockerill-i-x-brochure-a4h-md-1.pdf"
 xmlns:inkscape="http://www.inkscape.org/namespaces/inkscape"
 xmlns:sodipodi="http://sodipodi.sourceforge.net/DTD/sodipodi-0.dtd"
 xmlns:svg="http://www.w3.org/2000/svg">
 <defs>
  <style type="text/css">
   <![CDATA[
    .fil0 {fill:#013D66}
    .fil2 {fill:#01ACDB}
    .fil1 {fill:#82B91B}
    .fil3 {fill:white;fill-rule:nonzero}
   ]]>
  </style>
 </defs>
 <g id="Camada_x0020_1">
  <metadata id="CorelCorpID_0Corel-Layer"/>
  <g id="_1897519517536">
   <g>
    <path class="fil0" d="M88.86 9.82c-7.94,1.73 -3.96,8.64 0.27,8.55 4.61,-0.09 9.25,-2.9 10.74,4.93 1.43,7.49 -6.1,5.78 -8.45,9.06 -2.19,3.06 -0.43,11.24 6.09,9.91 7.94,-1.63 4.77,-6.43 4.06,-10.78 -1.33,-8.12 7.37,-4.07 7.75,-9.38 0.6,-8.33 -8.23,-4.91 -10.89,-5.48 -5.75,-1.23 -1.75,-8.51 -9.57,-6.81z"/>
    <path class="fil1" d="M82.12 9.22c-2.67,3.42 -5.17,1.83 -8.01,3.71 -2.75,1.83 -1.96,5.76 -0.01,7.83 4.67,1.6 10.34,-3.1 12.99,2.91 0.84,1.91 0.92,4.41 3.34,5.26 1.97,0.7 5.55,-0.14 7.13,-1.61 2.5,-2.32 0.89,-9.74 -5.27,-8.42 -5.91,1.27 -9.96,-0.42 -8.86,-7.25 2.95,-4.36 5.16,-1.53 8.17,-4.64 1.21,-4.44 -1.92,-6.41 -6.07,-5.62 -5.44,1.05 -2.55,4.2 -3.41,7.83z"/>
    <path class="fil2" d="M113.96 34.68c1.19,-4.73 -1.77,-4.87 -1.44,-8.78 0.34,-4.1 3.57,-3.11 6,-5.16 1.02,-3.4 -1.12,-7.35 -4.9,-7.28 -4.05,0.08 -6.24,2.05 -8.92,-3.12 -2.13,-4.1 -7.23,-3.91 -8.81,-1.6 -2.02,2.96 1.09,7.16 5.89,6.43 4.16,-0.63 6.54,-0.27 8.24,4.18 2.27,5.95 -1.63,5.75 -4.95,7.55 -6.06,3.3 1.94,16.5 8.89,7.78z"/>
   </g>
   <polygon class="fil3" points="62.01,59.68 62.01,51.55 58.73,51.55 58.73,49.77 67.58,49.77 67.58,51.55 64.3,51.55 64.3,59.68 "/>
   <path id="_1" class="fil3" d="M70.31 59.86c-0.87,0 -1.64,-0.17 -2.31,-0.52 -0.66,-0.35 -1.18,-0.82 -1.54,-1.4 -0.37,-0.58 -0.55,-1.22 -0.55,-1.93 0,-0.7 0.19,-1.35 0.57,-1.94 0.38,-0.59 0.9,-1.06 1.56,-1.41 0.67,-0.35 1.42,-0.52 2.27,-0.52 0.85,0 1.61,0.17 2.26,0.52 0.65,0.35 1.15,0.82 1.52,1.41 0.36,0.59 0.55,1.24 0.55,1.94 0,0.11 -0.01,0.21 -0.02,0.33 -0.01,0.11 -0.03,0.23 -0.05,0.35l-6.37 0c0.12,0.44 0.36,0.79 0.73,1.06 0.37,0.28 0.83,0.41 1.38,0.41 0.48,0 0.9,-0.09 1.26,-0.28 0.35,-0.19 0.63,-0.42 0.82,-0.71l1.72 1.12c-0.33,0.46 -0.84,0.84 -1.52,1.13 -0.68,0.3 -1.44,0.44 -2.28,0.44zm-0.03 -6.08c-0.52,0 -0.97,0.13 -1.34,0.41 -0.37,0.27 -0.62,0.63 -0.74,1.07l4.21 0c-0.12,-0.4 -0.37,-0.75 -0.75,-1.05 -0.37,-0.29 -0.83,-0.43 -1.38,-0.43z"/>
   <path id="_2" class="fil3" d="M79.55 59.86c-0.61,0 -1.18,-0.1 -1.71,-0.3 -0.53,-0.19 -1,-0.47 -1.4,-0.82 -0.4,-0.36 -0.72,-0.77 -0.94,-1.23 -0.22,-0.47 -0.34,-0.97 -0.34,-1.51 0,-0.72 0.2,-1.37 0.58,-1.95 0.39,-0.58 0.93,-1.04 1.61,-1.39 0.68,-0.35 1.46,-0.52 2.32,-0.52 0.77,-0.01 1.47,0.1 2.08,0.35 0.61,0.24 1.09,0.58 1.46,1.02l-1.71 1.2c-0.19,-0.25 -0.45,-0.46 -0.76,-0.61 -0.31,-0.15 -0.66,-0.23 -1.04,-0.23 -0.47,0 -0.88,0.1 -1.23,0.3 -0.35,0.19 -0.62,0.45 -0.81,0.77 -0.19,0.32 -0.29,0.67 -0.29,1.06 0,0.38 0.1,0.73 0.31,1.05 0.2,0.33 0.48,0.59 0.83,0.78 0.36,0.19 0.77,0.29 1.24,0.29 0.42,0 0.79,-0.08 1.08,-0.25 0.3,-0.16 0.55,-0.37 0.77,-0.63l1.61 1.21c-0.41,0.44 -0.91,0.79 -1.5,1.04 -0.6,0.25 -1.32,0.37 -2.16,0.37z"/>
   <path id="_3" class="fil3" d="M84.07 59.68l0 -7.36 2.18 0 0 1.07c0.45,-0.83 1.32,-1.24 2.61,-1.24 0.61,0 1.16,0.12 1.65,0.37 0.49,0.24 0.88,0.59 1.16,1.04 0.29,0.46 0.43,1 0.43,1.62l0 4.5 -2.21 0 0 -4.04c0,-0.64 -0.17,-1.1 -0.51,-1.39 -0.34,-0.29 -0.78,-0.43 -1.33,-0.43 -0.47,0 -0.88,0.14 -1.23,0.43 -0.36,0.29 -0.53,0.75 -0.53,1.39l0 4.04 -2.22 0z"/>
   <path id="_4" class="fil3" d="M97.54 59.86c-0.87,0 -1.66,-0.17 -2.34,-0.52 -0.69,-0.35 -1.23,-0.82 -1.62,-1.4 -0.39,-0.58 -0.58,-1.22 -0.58,-1.93 0,-0.7 0.19,-1.35 0.58,-1.94 0.39,-0.58 0.93,-1.05 1.62,-1.4 0.68,-0.35 1.47,-0.52 2.34,-0.52 0.88,0 1.67,0.17 2.35,0.52 0.68,0.35 1.22,0.82 1.61,1.4 0.38,0.59 0.58,1.24 0.58,1.94 0,0.71 -0.2,1.35 -0.58,1.93 -0.39,0.58 -0.93,1.05 -1.61,1.4 -0.68,0.35 -1.47,0.52 -2.35,0.52zm0 -1.74c0.47,0 0.88,-0.1 1.23,-0.29 0.35,-0.19 0.62,-0.45 0.81,-0.77 0.19,-0.32 0.29,-0.67 0.29,-1.05 0,-0.38 -0.1,-0.74 -0.29,-1.06 -0.19,-0.32 -0.46,-0.58 -0.81,-0.77 -0.35,-0.19 -0.76,-0.29 -1.23,-0.29 -0.47,0 -0.88,0.1 -1.23,0.29 -0.35,0.19 -0.62,0.45 -0.81,0.77 -0.19,0.32 -0.29,0.68 -0.29,1.06 0,0.38 0.1,0.73 0.29,1.05 0.19,0.32 0.46,0.58 0.81,0.77 0.35,0.19 0.76,0.29 1.23,0.29z"/>
   <polygon id="_5" class="fil3" points="103.22,59.68 103.22,49.77 109.96,49.77 109.96,51.55 105.52,51.55 105.52,53.87 109.87,53.87 109.87,55.63 105.52,55.63 105.52,59.68 "/>
   <path id="_6" class="fil3" d="M112.28 51.71c-0.37,0 -0.68,-0.11 -0.94,-0.33 -0.26,-0.22 -0.38,-0.49 -0.38,-0.8 0,-0.3 0.12,-0.57 0.38,-0.79 0.26,-0.22 0.57,-0.33 0.94,-0.33 0.38,0 0.7,0.11 0.95,0.33 0.25,0.22 0.38,0.49 0.38,0.79 0,0.32 -0.13,0.59 -0.38,0.81 -0.25,0.21 -0.57,0.32 -0.95,0.32zm-1.1 7.97l0 -7.36 2.22 0 0 7.36 -2.22 0z"/>
   <path id="_7" class="fil3" d="M114.71 59.68l0 -7.36 2.18 0 0 1.07c0.44,-0.83 1.31,-1.24 2.6,-1.24 0.61,0 1.16,0.12 1.65,0.37 0.5,0.24 0.88,0.59 1.17,1.04 0.28,0.46 0.42,1 0.42,1.62l0 4.5 -2.21 0 0 -4.04c0,-0.64 -0.17,-1.1 -0.51,-1.39 -0.33,-0.29 -0.78,-0.43 -1.32,-0.43 -0.47,0 -0.88,0.14 -1.24,0.43 -0.35,0.29 -0.53,0.75 -0.53,1.39l0 4.04 -2.21 0z"/>
   <path id="_8" class="fil3" d="M128.04 59.86c-0.87,0 -1.64,-0.17 -2.31,-0.52 -0.67,-0.35 -1.18,-0.82 -1.55,-1.4 -0.36,-0.58 -0.55,-1.22 -0.55,-1.93 0,-0.7 0.19,-1.35 0.58,-1.94 0.38,-0.59 0.9,-1.06 1.56,-1.41 0.66,-0.35 1.42,-0.52 2.27,-0.52 0.85,0 1.6,0.17 2.25,0.52 0.65,0.35 1.16,0.82 1.53,1.41 0.36,0.59 0.54,1.24 0.54,1.94 0,0.11 0,0.21 -0.01,0.33 -0.01,0.11 -0.03,0.23 -0.05,0.35l-6.37 0c0.12,0.44 0.36,0.79 0.73,1.06 0.36,0.28 0.82,0.41 1.38,0.41 0.48,0 0.9,-0.09 1.25,-0.28 0.36,-0.19 0.63,-0.42 0.83,-0.71l1.72 1.12c-0.34,0.46 -0.85,0.84 -1.52,1.13 -0.68,0.3 -1.44,0.44 -2.28,0.44zm-0.03 -6.08c-0.53,0 -0.97,0.13 -1.35,0.41 -0.37,0.27 -0.61,0.63 -0.73,1.07l4.21 0c-0.12,-0.4 -0.37,-0.75 -0.75,-1.05 -0.37,-0.29 -0.84,-0.43 -1.38,-0.43z"/>
   <path class="fil3" d="M72.49 73.09l0 -0.79c-0.49,0.61 -1.22,0.92 -2.19,0.92 -0.62,0 -1.2,-0.13 -1.72,-0.41 -0.52,-0.27 -0.93,-0.65 -1.21,-1.14 -0.29,-0.49 -0.44,-1.05 -0.44,-1.69 0,-0.62 0.14,-1.18 0.4,-1.69 0.26,-0.5 0.65,-0.89 1.17,-1.16 0.52,-0.27 1.1,-0.4 1.74,-0.4 0.48,0 0.9,0.08 1.27,0.24 0.36,0.15 0.66,0.36 0.89,0.62l0 -3.09 1.33 0 0 8.59 -1.24 0zm-4.2 -3.11c0,0.8 0.22,1.39 0.64,1.79 0.42,0.39 0.93,0.59 1.5,0.59 0.58,0 1.08,-0.19 1.49,-0.57 0.4,-0.37 0.61,-0.95 0.61,-1.72 0,-0.85 -0.21,-1.47 -0.63,-1.87 -0.41,-0.4 -0.92,-0.59 -1.53,-0.59 -0.59,0 -1.08,0.18 -1.48,0.57 -0.4,0.38 -0.6,0.98 -0.6,1.8z"/>
   <path id="_1_21" class="fil3" d="M75.34 69.98c0,-1.15 0.4,-2.01 1.21,-2.56 0.67,-0.46 1.49,-0.69 2.46,-0.69 1.08,0 1.96,0.28 2.64,0.84 0.69,0.56 1.03,1.33 1.03,2.32 0,0.8 -0.15,1.43 -0.45,1.88 -0.31,0.46 -0.75,0.82 -1.33,1.07 -0.57,0.26 -1.21,0.38 -1.89,0.38 -1.09,0 -1.98,-0.28 -2.66,-0.83 -0.68,-0.56 -1.01,-1.37 -1.01,-2.41zm1.36 0c0,0.79 0.22,1.39 0.65,1.78 0.45,0.4 1,0.6 1.66,0.6 0.66,0 1.21,-0.2 1.65,-0.6 0.44,-0.4 0.66,-1 0.66,-1.82 0,-0.77 -0.22,-1.35 -0.66,-1.74 -0.44,-0.4 -0.99,-0.59 -1.65,-0.59 -0.66,0 -1.21,0.19 -1.66,0.58 -0.43,0.4 -0.65,0.99 -0.65,1.79z"/>
   <path id="_2_22" class="fil3" d="M88.54 73.09l0 -8.59 4.06 0c0.83,0 1.49,0.08 1.99,0.26 0.5,0.17 0.89,0.44 1.17,0.8 0.29,0.36 0.43,0.74 0.43,1.13 0,0.37 -0.13,0.72 -0.38,1.04 -0.25,0.33 -0.63,0.59 -1.13,0.79 0.65,0.15 1.16,0.41 1.51,0.78 0.35,0.36 0.53,0.8 0.53,1.3 0,0.4 -0.11,0.78 -0.33,1.12 -0.21,0.35 -0.48,0.61 -0.79,0.8 -0.31,0.19 -0.71,0.33 -1.18,0.43 -0.48,0.09 -1.06,0.14 -1.75,0.14l-4.13 0zm1.44 -4.98l2.34 0c0.63,0 1.09,-0.03 1.36,-0.1 0.37,-0.09 0.64,-0.23 0.82,-0.43 0.19,-0.2 0.28,-0.45 0.28,-0.75 0,-0.29 -0.08,-0.54 -0.26,-0.76 -0.17,-0.22 -0.41,-0.37 -0.74,-0.45 -0.32,-0.08 -0.86,-0.12 -1.64,-0.12l-2.16 0 0 2.61zm0 3.97l2.69 0c0.46,0 0.79,-0.01 0.98,-0.04 0.33,-0.05 0.6,-0.12 0.83,-0.23 0.22,-0.11 0.4,-0.27 0.54,-0.48 0.14,-0.21 0.21,-0.46 0.21,-0.73 0,-0.32 -0.1,-0.6 -0.31,-0.84 -0.2,-0.24 -0.49,-0.4 -0.86,-0.5 -0.36,-0.09 -0.89,-0.14 -1.58,-0.14l-2.5 0 0 2.96z"/>
   <path id="_3_23" class="fil3" d="M98.5 73.09l0 -6.23 1.19 0 0 0.95c0.31,-0.44 0.59,-0.73 0.85,-0.87 0.26,-0.14 0.54,-0.21 0.85,-0.21 0.45,0 0.91,0.11 1.37,0.33l-0.47 0.98c-0.33,-0.15 -0.65,-0.22 -0.97,-0.22 -0.29,0 -0.55,0.07 -0.78,0.21 -0.23,0.14 -0.39,0.33 -0.49,0.57 -0.15,0.38 -0.22,0.79 -0.22,1.24l0 3.25 -1.33 0z"/>
   <path id="_4_24" class="fil3" d="M108.67 72.31c-0.5,0.33 -0.97,0.57 -1.43,0.71 -0.45,0.13 -0.94,0.2 -1.47,0.2 -0.86,0 -1.52,-0.16 -1.98,-0.5 -0.47,-0.33 -0.7,-0.76 -0.7,-1.27 0,-0.31 0.09,-0.59 0.26,-0.84 0.18,-0.25 0.41,-0.45 0.69,-0.6 0.29,-0.15 0.6,-0.27 0.96,-0.35 0.26,-0.05 0.65,-0.1 1.18,-0.16 1.07,-0.1 1.87,-0.22 2.37,-0.36 0.01,-0.14 0.01,-0.23 0.01,-0.27 0,-0.43 -0.13,-0.73 -0.38,-0.91 -0.34,-0.24 -0.84,-0.35 -1.51,-0.35 -0.63,0 -1.09,0.08 -1.39,0.26 -0.3,0.17 -0.52,0.48 -0.66,0.92l-1.3 -0.14c0.12,-0.44 0.31,-0.8 0.58,-1.07 0.27,-0.28 0.67,-0.48 1.18,-0.63 0.51,-0.15 1.11,-0.22 1.78,-0.22 0.67,0 1.22,0.06 1.64,0.19 0.42,0.12 0.73,0.28 0.92,0.47 0.2,0.19 0.34,0.43 0.42,0.72 0.04,0.18 0.07,0.5 0.07,0.97l0 1.4c0,0.98 0.02,1.6 0.08,1.86 0.05,0.26 0.16,0.51 0.32,0.75l-1.39 0c-0.13,-0.22 -0.22,-0.48 -0.25,-0.78zm-0.11 -2.34c-0.48,0.16 -1.21,0.29 -2.18,0.4 -0.54,0.06 -0.93,0.13 -1.16,0.21 -0.22,0.07 -0.4,0.19 -0.52,0.34 -0.12,0.15 -0.19,0.31 -0.19,0.5 0,0.27 0.14,0.51 0.4,0.69 0.27,0.19 0.67,0.28 1.18,0.28 0.52,0 0.97,-0.08 1.37,-0.26 0.4,-0.18 0.69,-0.42 0.88,-0.73 0.14,-0.23 0.21,-0.58 0.21,-1.05l0.01 -0.38z"/>
   <path id="_5_25" class="fil3" d="M111.42 71.23l1.31 -0.17c0.08,0.42 0.28,0.74 0.62,0.96 0.34,0.23 0.81,0.34 1.42,0.34 0.61,0 1.06,-0.1 1.36,-0.3 0.29,-0.19 0.44,-0.43 0.44,-0.69 0,-0.24 -0.13,-0.43 -0.4,-0.56 -0.18,-0.1 -0.64,-0.22 -1.36,-0.36 -0.97,-0.2 -1.64,-0.36 -2.02,-0.51 -0.37,-0.14 -0.66,-0.34 -0.85,-0.59 -0.2,-0.25 -0.3,-0.53 -0.3,-0.83 0,-0.28 0.09,-0.54 0.24,-0.77 0.17,-0.24 0.38,-0.43 0.66,-0.59 0.2,-0.12 0.49,-0.22 0.84,-0.31 0.36,-0.08 0.74,-0.12 1.15,-0.12 0.61,0 1.15,0.07 1.61,0.21 0.47,0.14 0.81,0.33 1.03,0.57 0.22,0.25 0.37,0.57 0.46,0.97l-1.3 0.14c-0.06,-0.32 -0.23,-0.57 -0.51,-0.76 -0.28,-0.18 -0.68,-0.27 -1.2,-0.27 -0.61,0 -1.04,0.08 -1.3,0.24 -0.26,0.16 -0.39,0.35 -0.39,0.57 0,0.13 0.05,0.26 0.16,0.36 0.11,0.12 0.28,0.21 0.51,0.28 0.13,0.05 0.52,0.13 1.17,0.28 0.94,0.19 1.59,0.36 1.96,0.48 0.38,0.13 0.67,0.31 0.88,0.56 0.21,0.24 0.32,0.54 0.32,0.9 0,0.35 -0.13,0.68 -0.39,0.99 -0.26,0.31 -0.63,0.55 -1.12,0.72 -0.48,0.17 -1.04,0.25 -1.65,0.25 -1.02,0 -1.8,-0.17 -2.33,-0.5 -0.53,-0.34 -0.87,-0.83 -1.02,-1.49z"/>
   <path id="_6_26" class="fil3" d="M119.5 65.7l0 -1.2 1.33 0 0 1.2 -1.33 0zm0 7.39l0 -6.23 1.33 0 0 6.23 -1.33 0z"/>
   <polygon id="_7_27" class="fil3" points="122.83,73.09 122.83,64.5 124.16,64.5 124.16,73.09 "/>
  </g>
  <g id="_1897519519120">
   <sodipodi:namedview id="namedview1" pagecolor="#ffffff" bordercolor="#000000" borderopacity="0.25" inkscape:showpageshadow="2" inkscape:pageopacity="0.0" inkscape:pagecheckerboard="0" inkscape:deskcolor="#d1d1d1">
    <inkscape:page x="1.1656569e-05" y="-1.7363973e-06" width="198.48924" height="75.852905" id="page2" margin="0" bleed="0"/>
   </sodipodi:namedview>
  </g>
  <g id="_1897519519600">
   <sodipodi:namedview id="namedview1" pagecolor="#ffffff" bordercolor="#000000" borderopacity="0.25" inkscape:showpageshadow="2" inkscape:pageopacity="0.0" inkscape:pagecheckerboard="0" inkscape:deskcolor="#d1d1d1">
    <inkscape:page x="1.1656569e-05" y="-1.7363973e-06" width="198.48924" height="75.852905" id="page2" margin="0" bleed="0"/>
   </sodipodi:namedview>
  </g>
 </g>
</svg>
