<?xml version="1.0" encoding="UTF-8"?>
<!DOCTYPE svg PUBLIC "-//W3C//DTD SVG 1.1//EN" "http://www.w3.org/Graphics/SVG/1.1/DTD/svg11.dtd">
<!-- Creator: CorelDRAW -->
<svg xmlns="http://www.w3.org/2000/svg" xml:space="preserve" width="19.459mm" height="14.372mm" version="1.1" style="shape-rendering:geometricPrecision; text-rendering:geometricPrecision; image-rendering:optimizeQuality; fill-rule:evenodd; clip-rule:evenodd"
viewBox="0 0 1945.9 1437.2"
 xmlns:xlink="http://www.w3.org/1999/xlink"
 xmlns:xodm="http://www.corel.com/coreldraw/odm/2003">
 <defs>
  <style type="text/css">
   <![CDATA[
    .fil1 {fill:#6EEE4D}
    .fil0 {fill:#0C0D10;fill-rule:nonzero}
   ]]>
  </style>
 </defs>
 <g id="Camada_x0020_1">
  <metadata id="CorelCorpID_0Corel-Layer"/>
  <path class="fil0" d="M361.74 -3.32l1216.22 0c201.47,0 364.86,120.67 364.86,269.47l0 898.22c0,148.79 -163.39,269.46 -364.86,269.46l-1216.22 0.01c-201.46,-0.01 -364.85,-120.68 -364.85,-269.47l-0.01 -898.22c0.01,-148.8 163.4,-269.47 364.87,-269.47z"/>
  <g id="_1897783957216">
   <path class="fil1" d="M622.8 818.91c0.74,0.85 0.7,0.66 1.48,2.15 1.11,2.13 0.09,-0.17 1.04,2.41l12.58 38.64 73.96 0.3c2.75,-17.7 -2.37,-142.31 1.11,-154.38l16.37 -0.07c1.3,6.51 0.48,69.94 0.47,82.04 0,29.66 -0.21,49.28 17.11,66.01 29.16,28.18 106.24,23.75 136.18,12.09l0.13 -57.43c-37.56,-3.76 -55.17,8.92 -55.23,-38.57 -0.04,-31.55 0.01,-63.1 0.01,-94.65l54.64 -0.01c1.24,-4.94 1.24,-61.87 0,-66.69l-54.64 -0.14 -0.02 -78.26 -72.78 -0.44c-6.69,16.14 -15.19,63.02 -21.9,78.75 -70.35,2.43 -156.93,0.94 -230.19,0.94 -7.58,0 -27.32,-2.64 -31.02,1.97 -1.87,2.19 -0.87,-0.78 -1.42,4.14 -1.14,10.12 0.11,88.08 0.43,90.14l102.77 0.22c-2.97,48.15 -77.54,63.81 -125.9,48.49 -60.18,-19.06 -61.66,-73.4 -61.66,-124.27 0,-29.14 1.18,-54.97 14.84,-77.34 11.15,-18.25 28.1,-32.24 54.7,-38.31 35.44,-8.09 83.81,-2.67 105.95,24.53 8.15,10.01 11.25,17.88 12.8,34.17l137.12 0.19c3.54,-60.67 -34.61,-105.34 -66.31,-126.92 -38.9,-26.49 -91.35,-41.71 -149.01,-43.15 -126.2,-3.13 -214.24,43.37 -244.97,140.95 -15.28,48.55 -17.36,119.81 -4.37,172.15 13.92,56.07 39.37,92.98 76.41,116.87 42.35,27.3 96.92,36.79 157.25,34.56 26.49,-0.98 57.78,-7.52 79.89,-15.88 43.94,-16.62 46.06,-26.54 62.18,-35.2z"/>
   <path class="fil1" d="M1211.11 815.8c-2.59,6.93 -3.98,17.58 -5.96,25.28 -28.02,109.19 -90.94,207.18 -178.15,275.94 -42.58,33.57 -93.84,64.15 -157.47,85.4 -136.35,45.55 -275.1,31.65 -401.04,-32.08 -30.57,-15.47 -82.88,-50.94 -107.44,-74.98l-30.09 -30.3c-39.35,-39.55 -72.45,-94.64 -95.88,-146.79 -25.98,-57.83 -41.04,-126.96 -41.87,-200.97 -1.49,-135.23 55.57,-272.72 150.67,-366.16 15.14,-14.87 31.31,-29.18 48.4,-42.2 135.08,-102.95 309.21,-136.24 474.13,-82.34 64.64,21.13 113.07,50.41 158.04,84.57 44.29,33.65 82.88,76.94 115.38,127.3 25.4,39.36 43.3,79.26 57.71,123.69l12.46 47.45c8.34,1.64 170.44,0.79 179.13,0.46 -2.59,-5.58 -110.28,-110 -130.38,-130.54 -12.45,-12.72 -37.26,-29.99 -12.45,-54.76l108.6 -108.43c9.93,-7.24 23.67,-5.64 31.72,0.65 3.51,2.75 7.74,7.52 11.38,10.97 3.88,3.68 6.85,6.84 10.64,10.62l322.58 325.02c13.37,13.7 37.02,32.63 38.14,48.07 1.08,15 -8.78,22.12 -15.22,28.56l-345.73 346.61c-12.07,12.21 -32.53,39.72 -55.25,20.84 -9.72,-8.08 -53.31,-52.43 -64.88,-63.78 -14.59,-14.32 -29.48,-27.9 -43.6,-42.52 -22.71,-23.5 3.37,-43.11 15.91,-55.65l86 -86.25c7.34,-7.35 39.45,-37.71 42.96,-44.24 -10.3,-0.21 -170.3,-1.19 -178.44,0.56zm37.07 18.03l97.15 -0.21c-2.02,4.32 -99.12,100.32 -114.19,115.09 -5.56,5.45 -18.53,17.1 -22.38,23.46 -14.03,23.14 10.67,40.06 28.01,57.25 15.46,15.32 31.42,29.11 46.46,45.25l40.34 39.09c2.82,2.34 4.06,2.43 7.24,5.01 7.51,6.08 15.23,16.95 24.31,21.63 13.29,6.85 25.88,2.05 34.2,-5.55 15.81,-14.46 31.12,-31.06 46.44,-46.39 61.6,-61.6 122.39,-122.39 183.99,-183.99 30.84,-30.84 60.87,-60.87 91.71,-91.71l68.79 -68.79c6.64,-6.64 17.47,-14.91 17.21,-30.05 -0.25,-14.25 -10.38,-22.88 -17.01,-29.1 -17.95,-16.88 -50.44,-50.99 -68.2,-69.36 -30.57,-31.62 -60.65,-61.75 -91.73,-92.82 -61.6,-61.6 -122.39,-122.39 -183.99,-183.99 -15.48,-15.48 -30.12,-30.69 -45.85,-45.86 -25.56,-24.67 -44.52,0.24 -58.54,14.25 -4.02,4.02 -8.12,6.52 -12,10.38 -4.21,4.18 -7.56,7.55 -11.75,11.74l-92.19 92.35c-29.27,29.19 2.91,48.2 35.82,80.4 16.18,15.83 30.33,30.26 46.03,45.68 6,5.9 44.28,41.99 45.82,46.24l-96.28 0.13c-10.86,-37.29 -14.8,-61.49 -32.03,-99.24 -17.83,-39.09 -23.93,-50.47 -45.98,-85.96 -16.93,-27.24 -50.25,-67.71 -73.24,-90.07 -5.96,-5.8 -11.37,-10.29 -17.2,-16.35l-35.89 -30.11c-230.27,-179.29 -558.97,-146.95 -754.17,64.37 -195.88,212.06 -195.89,545.4 0.43,757.61 145.25,157 373.8,221.98 582.85,153.5 67.79,-22.21 125.5,-54.2 172.12,-90.84 78.76,-61.89 130.43,-130.11 171.81,-223.01 14.16,-31.79 22.52,-63.75 31.89,-100.03z"/>
   <path class="fil1" d="M923.3 375.5c-11.55,3.13 -18.65,12.23 -19.04,26.35 -1.13,40.32 0,96.11 0,137.61l0 457.45c0,12.25 -1.58,34.19 3,43.31 11.61,23.11 48.87,17.32 49.45,-13.05 0.83,-43.11 -0.01,-93.91 -0.01,-137.63l0 -457.45c0,-12.01 1.96,-32.89 -2.49,-42.64 -4.59,-10.07 -16,-17.99 -30.91,-13.95z"/>
   <path class="fil1" d="M485.23 979.21l-19.39 -0.56c-1.05,20.03 6.32,29.4 22.79,32.72 18.84,3.8 79.27,7.63 92.47,-13.65 8.54,-13.79 4.6,-35.39 -5.83,-42.76 -15.9,-11.22 -52.09,-5.55 -74.68,-8.15 -9.6,-1.1 -15.25,-2.23 -15.08,-12.51 0.28,-17.06 25.07,-14.52 39.98,-14.5 35.53,0.04 38.64,-2.23 39.97,15.95l19.68 0.5c1.49,-19.27 -6.46,-28.27 -21.73,-31.97 -16.95,-4.1 -80.71,-7.18 -93.56,12.41 -5.84,8.89 -8.45,32.72 6.75,41.82 18.12,10.84 56.1,5.25 74.86,7.74 9.9,1.31 14.61,3.6 13.77,15.04 -1.24,16.73 -25.88,14.2 -40.86,14.19 -44.18,-0.03 -35.23,-1.09 -39.14,-16.27z"/>
   <path class="fil1" d="M783.65 953.59l0.04 -31.63c15.36,-0.93 68.71,-1.81 78.65,3.05 0.91,4.48 2.12,20.7 -0.6,24.55 -3.54,5.01 -16.23,4.14 -23.08,4.28 -16.63,0.33 -38.78,0.99 -55.01,-0.25zm-20.25 57.28l20.07 0.22 0.03 -38.98c19.13,-3.02 48.82,0.98 69.89,-1.4 27.42,-3.08 31.66,-13.46 29.93,-42 -1.52,-25.22 -22.49,-24.94 -46.89,-24.95 -23.73,-0.01 -49.38,-0.91 -72.87,0.16l-0.16 106.95z"/>
   <path class="fil1" d="M697.86 947.49l-83.47 0.12 -0.26 -43.69 -19.82 -0.18 -0.21 107.32 20.07 -0.06 0.03 -44.93 83.39 -0.41 0.38 44.77 20.22 0.66c0,-14.64 1.41,-100.93 -0.87,-107.4l-18.82 -0.02 -0.64 43.82z"/>
   <path class="fil1" d="M1660.55 725.32l-15.47 -0.25c-2.31,22.57 13.19,26.67 33.52,26.97 17.77,0.25 41.56,1.22 50.74,-9.76 4.54,-5.43 13.86,-33.24 -13.73,-38.71 -15.5,-3.07 -43.98,2.61 -54.29,-5.7 -1.26,-8.37 -0.41,-11.62 7.09,-13.43 7.78,-1.87 31.72,-1.99 40.13,-1.22 9.02,0.83 9.45,3.14 9.98,12.02l15.45 0c1.62,-30.45 -25.46,-27.45 -55.31,-26.56 -47.45,1.42 -34.09,36.01 -27.35,41.26 7.82,6.09 21.74,6.59 34.04,6.56 14.2,-0.04 32.06,-2.3 32.86,8.61 1.02,14.13 -16.59,12.28 -28.39,12.26 -6.46,0 -13.63,0.27 -20.01,-0.35 -9.6,-0.93 -8.48,-3.27 -9.26,-11.7z"/>
   <polygon class="fil1" points="1557.1,750.29 1637.32,750.26 1637.27,736.31 1573.15,735.94 1572.97,716.89 1634.06,716.46 1634.24,702.38 1573.21,702.16 1572.98,684.58 1637.32,684.25 1637.27,670.32 1557.31,669.99 "/>
   <path class="fil1" d="M1260.79 719.16l-15.29 -0.13c-1.28,9.68 0.98,15.99 -9.13,17.71 -7.38,1.25 -18.61,0.62 -26.37,0.63 -28.27,0.01 -28.54,2.19 -28.52,-26.79 0.01,-27.92 -1.45,-27.67 26.28,-27.64 34.8,0.04 36.32,-2.6 37.65,16.78l15.46 0c1.47,-34.15 -24.05,-31.92 -54.23,-31.42 -36.08,0.6 -41.14,7.19 -41.18,43.4 -0.03,36.1 8.58,40.27 44.54,40.34 19.81,0.05 56.97,2.52 50.79,-32.88z"/>
   <path class="fil1" d="M1087.87 718.76c1.53,-4.49 15.06,-28.74 18.11,-31.34 4,4.77 16.13,26.12 17.57,31.57l-35.68 -0.23zm-36.23 31.5c18.72,0.03 17.47,3.93 26.69,-16.74l54.49 0.04 8.89 16.1c7.08,1.2 11.03,0.68 18.31,0.52l-45.99 -79.99c-20.6,-0.87 -15.08,-2.29 -26.97,18.08l-23.57 40.23c-3.41,5.89 -9.95,15.72 -11.85,21.76z"/>
   <polygon class="fil1" points="971.69,749.92 987.74,750.28 987.79,716.8 1045.75,716.46 1045.93,702.38 988.14,702.17 987.81,684.52 1049,684.25 1048.95,670.32 972.04,670.02 "/>
   <polygon class="fil1" points="1421.3,683.93 1457.58,684.36 1458,750.11 1474.02,750.19 1474.07,684.45 1510.93,684.22 1510.88,670.32 1421.45,670.02 "/>
   <polygon class="fil1" points="730.79,1011.01 750.79,1011.05 750.78,903.8 730.94,903.77 "/>
   <path class="fil1" d="M1307.28 750.17l74.07 0.1 0.23 -13.41c-5.17,-1.79 -36.73,-0.94 -46.33,-0.86 -15.88,0.13 -11.97,4.43 -11.97,-34.36 0,-10.35 0.32,-21.2 -0.15,-31.48l-15.77 -0.07 -0.08 80.08z"/>
   <polygon class="fil1" points="1524.22,749.92 1540.26,750.28 1540.25,670.16 1524.35,670.09 "/>
   <polygon class="fil1" points="1274.54,750.11 1290.59,750.19 1290.58,670.32 1274.7,670.01 "/>
   <polygon class="fil1" points="1391.75,750.01 1407.31,750.27 1407.72,670.03 1392.08,669.93 "/>
  </g>
 </g>
</svg>
